<mxfile host="app.diagrams.net" modified="2022-05-23T16:00:12.324Z" agent="5.0 (Windows NT 10.0; Win64; x64) AppleWebKit/537.36 (KHTML, like Gecko) Chrome/101.0.4951.67 Safari/537.36" etag="1MDAwb_pUicNtdSCXwXD" version="18.1.1" type="github">
  <diagram id="lUyONejUOsZmrfGbkppZ" name="第 1 页">
    <mxGraphModel dx="688" dy="519" grid="1" gridSize="10" guides="1" tooltips="1" connect="1" arrows="1" fold="1" page="1" pageScale="1" pageWidth="827" pageHeight="1169" math="0" shadow="0">
      <root>
        <mxCell id="0" />
        <mxCell id="1" parent="0" />
        <mxCell id="YY3Tl-ZVdhQwYrQoRmQm-1" style="edgeStyle=orthogonalEdgeStyle;rounded=0;orthogonalLoop=1;jettySize=auto;html=1;exitX=0.5;exitY=1;exitDx=0;exitDy=0;entryX=0.5;entryY=0;entryDx=0;entryDy=0;" parent="1" source="YY3Tl-ZVdhQwYrQoRmQm-2" target="YY3Tl-ZVdhQwYrQoRmQm-4" edge="1">
          <mxGeometry relative="1" as="geometry" />
        </mxCell>
        <mxCell id="YY3Tl-ZVdhQwYrQoRmQm-2" value="第五章" style="rounded=1;whiteSpace=wrap;html=1;" parent="1" vertex="1">
          <mxGeometry x="280" y="80" width="120" height="20" as="geometry" />
        </mxCell>
        <mxCell id="YY3Tl-ZVdhQwYrQoRmQm-3" style="edgeStyle=orthogonalEdgeStyle;rounded=0;orthogonalLoop=1;jettySize=auto;html=1;exitX=0.5;exitY=1;exitDx=0;exitDy=0;entryX=0.5;entryY=0;entryDx=0;entryDy=0;" parent="1" source="YY3Tl-ZVdhQwYrQoRmQm-4" edge="1">
          <mxGeometry relative="1" as="geometry">
            <mxPoint x="340" y="160" as="targetPoint" />
          </mxGeometry>
        </mxCell>
        <mxCell id="YY3Tl-ZVdhQwYrQoRmQm-4" value="高考发挥失常" style="rounded=0;whiteSpace=wrap;html=1;" parent="1" vertex="1">
          <mxGeometry x="280" y="120" width="120" height="20" as="geometry" />
        </mxCell>
        <mxCell id="YY3Tl-ZVdhQwYrQoRmQm-5" style="edgeStyle=orthogonalEdgeStyle;rounded=0;orthogonalLoop=1;jettySize=auto;html=1;exitX=0.5;exitY=1;exitDx=0;exitDy=0;entryX=0.5;entryY=0;entryDx=0;entryDy=0;" parent="1" target="YY3Tl-ZVdhQwYrQoRmQm-11" edge="1">
          <mxGeometry relative="1" as="geometry">
            <mxPoint x="340" y="220" as="sourcePoint" />
          </mxGeometry>
        </mxCell>
        <mxCell id="YY3Tl-ZVdhQwYrQoRmQm-6" style="edgeStyle=orthogonalEdgeStyle;rounded=0;orthogonalLoop=1;jettySize=auto;html=1;exitX=0.5;exitY=1;exitDx=0;exitDy=0;" parent="1" source="YY3Tl-ZVdhQwYrQoRmQm-7" edge="1">
          <mxGeometry relative="1" as="geometry">
            <mxPoint x="340" y="200" as="targetPoint" />
          </mxGeometry>
        </mxCell>
        <mxCell id="YY3Tl-ZVdhQwYrQoRmQm-7" value="与父亲沟通" style="rounded=0;whiteSpace=wrap;html=1;" parent="1" vertex="1">
          <mxGeometry x="280" y="160" width="120" height="20" as="geometry" />
        </mxCell>
        <mxCell id="YY3Tl-ZVdhQwYrQoRmQm-8" value="说出抑郁" style="edgeStyle=orthogonalEdgeStyle;rounded=0;orthogonalLoop=1;jettySize=auto;html=1;exitX=0.5;exitY=1;exitDx=0;exitDy=0;entryX=0.5;entryY=0;entryDx=0;entryDy=0;" parent="1" source="YY3Tl-ZVdhQwYrQoRmQm-11" target="YY3Tl-ZVdhQwYrQoRmQm-13" edge="1">
          <mxGeometry relative="1" as="geometry" />
        </mxCell>
        <mxCell id="YY3Tl-ZVdhQwYrQoRmQm-31" style="edgeStyle=orthogonalEdgeStyle;rounded=0;orthogonalLoop=1;jettySize=auto;html=1;exitX=0;exitY=0.5;exitDx=0;exitDy=0;entryX=0;entryY=0.5;entryDx=0;entryDy=0;" parent="1" source="YY3Tl-ZVdhQwYrQoRmQm-11" target="YY3Tl-ZVdhQwYrQoRmQm-17" edge="1">
          <mxGeometry relative="1" as="geometry" />
        </mxCell>
        <mxCell id="YY3Tl-ZVdhQwYrQoRmQm-32" value="沉默" style="edgeLabel;html=1;align=center;verticalAlign=middle;resizable=0;points=[];" parent="YY3Tl-ZVdhQwYrQoRmQm-31" vertex="1" connectable="0">
          <mxGeometry x="-0.2453" y="2" relative="1" as="geometry">
            <mxPoint as="offset" />
          </mxGeometry>
        </mxCell>
        <mxCell id="YY3Tl-ZVdhQwYrQoRmQm-11" value="玩家控制" style="rhombus;whiteSpace=wrap;html=1;" parent="1" vertex="1">
          <mxGeometry x="280" y="200" width="120" height="40" as="geometry" />
        </mxCell>
        <mxCell id="YY3Tl-ZVdhQwYrQoRmQm-36" style="edgeStyle=orthogonalEdgeStyle;rounded=0;orthogonalLoop=1;jettySize=auto;html=1;exitX=1;exitY=0.5;exitDx=0;exitDy=0;entryX=0.5;entryY=0;entryDx=0;entryDy=0;" parent="1" source="YY3Tl-ZVdhQwYrQoRmQm-13" target="YY3Tl-ZVdhQwYrQoRmQm-25" edge="1">
          <mxGeometry relative="1" as="geometry">
            <Array as="points">
              <mxPoint x="410" y="290" />
              <mxPoint x="410" y="100" />
              <mxPoint x="500" y="100" />
            </Array>
          </mxGeometry>
        </mxCell>
        <mxCell id="YY3Tl-ZVdhQwYrQoRmQm-13" value="抑郁值降低" style="rounded=0;whiteSpace=wrap;html=1;" parent="1" vertex="1">
          <mxGeometry x="280" y="280" width="120" height="20" as="geometry" />
        </mxCell>
        <mxCell id="ymx8ACUqEfqN2wenasF1-4" style="edgeStyle=orthogonalEdgeStyle;rounded=0;orthogonalLoop=1;jettySize=auto;html=1;exitX=0.5;exitY=1;exitDx=0;exitDy=0;entryX=0.5;entryY=0;entryDx=0;entryDy=0;" edge="1" parent="1" source="YY3Tl-ZVdhQwYrQoRmQm-17" target="ymx8ACUqEfqN2wenasF1-3">
          <mxGeometry relative="1" as="geometry" />
        </mxCell>
        <mxCell id="YY3Tl-ZVdhQwYrQoRmQm-17" value="抑郁值升高" style="rounded=0;whiteSpace=wrap;html=1;" parent="1" vertex="1">
          <mxGeometry x="280" y="320" width="120" height="20" as="geometry" />
        </mxCell>
        <mxCell id="YY3Tl-ZVdhQwYrQoRmQm-34" style="edgeStyle=orthogonalEdgeStyle;rounded=0;orthogonalLoop=1;jettySize=auto;html=1;exitX=0.5;exitY=1;exitDx=0;exitDy=0;" parent="1" source="YY3Tl-ZVdhQwYrQoRmQm-25" edge="1">
          <mxGeometry relative="1" as="geometry">
            <mxPoint x="500" y="150" as="targetPoint" />
          </mxGeometry>
        </mxCell>
        <mxCell id="YY3Tl-ZVdhQwYrQoRmQm-41" style="edgeStyle=orthogonalEdgeStyle;rounded=0;orthogonalLoop=1;jettySize=auto;html=1;exitX=0;exitY=0.5;exitDx=0;exitDy=0;entryX=0;entryY=0.5;entryDx=0;entryDy=0;" parent="1" source="YY3Tl-ZVdhQwYrQoRmQm-25" target="YY3Tl-ZVdhQwYrQoRmQm-39" edge="1">
          <mxGeometry relative="1" as="geometry">
            <Array as="points">
              <mxPoint x="430" y="140" />
              <mxPoint x="430" y="250" />
            </Array>
          </mxGeometry>
        </mxCell>
        <mxCell id="YY3Tl-ZVdhQwYrQoRmQm-42" value="低" style="edgeLabel;html=1;align=center;verticalAlign=middle;resizable=0;points=[];" parent="YY3Tl-ZVdhQwYrQoRmQm-41" vertex="1" connectable="0">
          <mxGeometry x="-0.2831" y="3" relative="1" as="geometry">
            <mxPoint x="-3" y="3" as="offset" />
          </mxGeometry>
        </mxCell>
        <mxCell id="ymx8ACUqEfqN2wenasF1-8" value="无" style="edgeStyle=orthogonalEdgeStyle;rounded=0;orthogonalLoop=1;jettySize=auto;html=1;exitX=0.5;exitY=1;exitDx=0;exitDy=0;entryX=0.5;entryY=0;entryDx=0;entryDy=0;" edge="1" parent="1" source="YY3Tl-ZVdhQwYrQoRmQm-25" target="YY3Tl-ZVdhQwYrQoRmQm-43">
          <mxGeometry relative="1" as="geometry" />
        </mxCell>
        <mxCell id="ymx8ACUqEfqN2wenasF1-9" style="edgeStyle=orthogonalEdgeStyle;rounded=0;orthogonalLoop=1;jettySize=auto;html=1;exitX=1;exitY=0.5;exitDx=0;exitDy=0;entryX=1;entryY=0.5;entryDx=0;entryDy=0;" edge="1" parent="1" source="YY3Tl-ZVdhQwYrQoRmQm-25" target="YY3Tl-ZVdhQwYrQoRmQm-37">
          <mxGeometry relative="1" as="geometry" />
        </mxCell>
        <mxCell id="ymx8ACUqEfqN2wenasF1-10" value="高" style="edgeLabel;html=1;align=center;verticalAlign=middle;resizable=0;points=[];" vertex="1" connectable="0" parent="ymx8ACUqEfqN2wenasF1-9">
          <mxGeometry x="-0.4568" relative="1" as="geometry">
            <mxPoint y="8" as="offset" />
          </mxGeometry>
        </mxCell>
        <mxCell id="YY3Tl-ZVdhQwYrQoRmQm-25" value="判断抑郁值" style="rhombus;whiteSpace=wrap;html=1;" parent="1" vertex="1">
          <mxGeometry x="440" y="120" width="120" height="40" as="geometry" />
        </mxCell>
        <mxCell id="YY3Tl-ZVdhQwYrQoRmQm-37" value="接受治疗，良好结局" style="rounded=0;whiteSpace=wrap;html=1;" parent="1" vertex="1">
          <mxGeometry x="440" y="280" width="120" height="20" as="geometry" />
        </mxCell>
        <mxCell id="YY3Tl-ZVdhQwYrQoRmQm-39" value="接受治疗，较好结局" style="rounded=0;whiteSpace=wrap;html=1;" parent="1" vertex="1">
          <mxGeometry x="440" y="240" width="120" height="20" as="geometry" />
        </mxCell>
        <mxCell id="YY3Tl-ZVdhQwYrQoRmQm-43" value="接受结果，最好结局" style="rounded=0;whiteSpace=wrap;html=1;" parent="1" vertex="1">
          <mxGeometry x="440" y="200" width="120" height="20" as="geometry" />
        </mxCell>
        <mxCell id="ymx8ACUqEfqN2wenasF1-11" value="低" style="edgeStyle=orthogonalEdgeStyle;rounded=0;orthogonalLoop=1;jettySize=auto;html=1;exitX=1;exitY=0.5;exitDx=0;exitDy=0;entryX=0;entryY=0.5;entryDx=0;entryDy=0;" edge="1" parent="1" source="ymx8ACUqEfqN2wenasF1-3" target="ymx8ACUqEfqN2wenasF1-5">
          <mxGeometry x="-0.3333" relative="1" as="geometry">
            <Array as="points">
              <mxPoint x="410" y="380" />
              <mxPoint x="410" y="330" />
            </Array>
            <mxPoint as="offset" />
          </mxGeometry>
        </mxCell>
        <mxCell id="ymx8ACUqEfqN2wenasF1-12" value="高" style="edgeStyle=orthogonalEdgeStyle;rounded=0;orthogonalLoop=1;jettySize=auto;html=1;exitX=0.5;exitY=1;exitDx=0;exitDy=0;entryX=0.5;entryY=1;entryDx=0;entryDy=0;" edge="1" parent="1" source="ymx8ACUqEfqN2wenasF1-3" target="ymx8ACUqEfqN2wenasF1-6">
          <mxGeometry x="-0.1818" relative="1" as="geometry">
            <mxPoint as="offset" />
          </mxGeometry>
        </mxCell>
        <mxCell id="ymx8ACUqEfqN2wenasF1-3" value="判断抑郁值" style="rhombus;whiteSpace=wrap;html=1;" vertex="1" parent="1">
          <mxGeometry x="280" y="360" width="120" height="40" as="geometry" />
        </mxCell>
        <mxCell id="ymx8ACUqEfqN2wenasF1-5" value="自我康复，一般结局" style="rounded=0;whiteSpace=wrap;html=1;" vertex="1" parent="1">
          <mxGeometry x="440" y="320" width="120" height="20" as="geometry" />
        </mxCell>
        <mxCell id="ymx8ACUqEfqN2wenasF1-6" value="抑郁自杀，糟糕结局" style="rounded=0;whiteSpace=wrap;html=1;" vertex="1" parent="1">
          <mxGeometry x="440" y="360" width="120" height="20" as="geometry" />
        </mxCell>
      </root>
    </mxGraphModel>
  </diagram>
</mxfile>
